<mxfile host="app.diagrams.net" modified="2023-04-17T17:19:18.686Z" agent="Mozilla/5.0 (Windows NT 10.0; Win64; x64) AppleWebKit/537.36 (KHTML, like Gecko) Chrome/112.0.0.0 Safari/537.36 Edg/112.0.1722.48" version="21.1.8" etag="-IY29t_PYeLDHnQb8c-9" type="github">
  <diagram name="Page-1" id="whtyvJRlvhp8KtupGgW0">
    <mxGraphModel>
      <root>
        <mxCell id="0" />
        <mxCell id="1" parent="0" />
      </root>
    </mxGraphModel>
  </diagram>
</mxfile>
